<svg xmlns="http://www.w3.org/2000/svg" xmlns:xlink="http://www.w3.org/1999/xlink" width="500" zoomAndPan="magnify" viewBox="0 0 375 374.999991" height="500" preserveAspectRatio="xMidYMid meet" version="1.0"><defs><g/><clipPath id="64ab3db18a"><path d="M 105.765625 105.765625 L 269.265625 105.765625 L 269.265625 269.265625 L 105.765625 269.265625 Z M 105.765625 105.765625 " clip-rule="nonzero"/></clipPath><clipPath id="0ed6700998"><path d="M 106.972656 106.972656 L 267.898438 106.972656 L 267.898438 267.898438 L 106.972656 267.898438 Z M 106.972656 106.972656 " clip-rule="nonzero"/></clipPath><clipPath id="47e7f0166d"><path d="M 114.226562 143.421875 L 260.476562 143.421875 L 260.476562 203.421875 L 114.226562 203.421875 Z M 114.226562 143.421875 " clip-rule="nonzero"/></clipPath><clipPath id="01896c3dc8"><path d="M 211.324219 162.785156 L 203.332031 170.1875 L 234.457031 198.558594 L 230.082031 203.429688 L 198.515625 174.652344 L 188.460938 183.96875 L 204.46875 198.5625 L 200.089844 203.429688 L 177.0625 182.4375 L 154.417969 203.414062 L 150.003906 198.578125 L 177.023438 173.546875 L 183.605469 179.542969 L 193.660156 170.226562 L 174.007812 152.3125 L 118.847656 203.414062 L 114.433594 198.578125 L 173.972656 143.421875 L 198.476562 165.761719 L 211.292969 153.890625 L 260.277344 198.554688 L 255.902344 203.425781 Z M 211.324219 162.785156 " clip-rule="nonzero"/></clipPath><linearGradient x1="-0.00000896954" gradientTransform="matrix(0.330913, 0, 0, 0.333333, 114.435221, 143.421297)" y1="90.014" x2="440.730987" gradientUnits="userSpaceOnUse" y2="90.014" id="b5030c6b7f"><stop stop-opacity="1" stop-color="rgb(100%, 87.098694%, 34.899902%)" offset="0"/><stop stop-opacity="1" stop-color="rgb(99.627686%, 86.885071%, 34.762573%)" offset="0.00390625"/><stop stop-opacity="1" stop-color="rgb(99.255371%, 86.672974%, 34.62677%)" offset="0.0078125"/><stop stop-opacity="1" stop-color="rgb(98.883057%, 86.459351%, 34.489441%)" offset="0.0117188"/><stop stop-opacity="1" stop-color="rgb(98.510742%, 86.245728%, 34.353638%)" offset="0.015625"/><stop stop-opacity="1" stop-color="rgb(98.138428%, 86.032104%, 34.217834%)" offset="0.0195312"/><stop stop-opacity="1" stop-color="rgb(97.766113%, 85.820007%, 34.082031%)" offset="0.0234375"/><stop stop-opacity="1" stop-color="rgb(97.393799%, 85.606384%, 33.944702%)" offset="0.0273438"/><stop stop-opacity="1" stop-color="rgb(97.021484%, 85.392761%, 33.808899%)" offset="0.03125"/><stop stop-opacity="1" stop-color="rgb(96.64917%, 85.179138%, 33.67157%)" offset="0.0351562"/><stop stop-opacity="1" stop-color="rgb(96.276855%, 84.967041%, 33.535767%)" offset="0.0390625"/><stop stop-opacity="1" stop-color="rgb(95.904541%, 84.753418%, 33.398438%)" offset="0.0429688"/><stop stop-opacity="1" stop-color="rgb(95.532227%, 84.539795%, 33.262634%)" offset="0.046875"/><stop stop-opacity="1" stop-color="rgb(95.159912%, 84.326172%, 33.126831%)" offset="0.0507812"/><stop stop-opacity="1" stop-color="rgb(94.787598%, 84.112549%, 32.991028%)" offset="0.0546875"/><stop stop-opacity="1" stop-color="rgb(94.415283%, 83.898926%, 32.853699%)" offset="0.0585938"/><stop stop-opacity="1" stop-color="rgb(94.042969%, 83.686829%, 32.717896%)" offset="0.0625"/><stop stop-opacity="1" stop-color="rgb(93.670654%, 83.473206%, 32.580566%)" offset="0.0664062"/><stop stop-opacity="1" stop-color="rgb(93.29834%, 83.259583%, 32.444763%)" offset="0.0703125"/><stop stop-opacity="1" stop-color="rgb(92.926025%, 83.045959%, 32.30896%)" offset="0.0742188"/><stop stop-opacity="1" stop-color="rgb(92.553711%, 82.833862%, 32.173157%)" offset="0.078125"/><stop stop-opacity="1" stop-color="rgb(92.181396%, 82.620239%, 32.035828%)" offset="0.0820312"/><stop stop-opacity="1" stop-color="rgb(91.809082%, 82.406616%, 31.900024%)" offset="0.0859375"/><stop stop-opacity="1" stop-color="rgb(91.436768%, 82.192993%, 31.762695%)" offset="0.0898437"/><stop stop-opacity="1" stop-color="rgb(91.064453%, 81.980896%, 31.626892%)" offset="0.09375"/><stop stop-opacity="1" stop-color="rgb(90.692139%, 81.767273%, 31.491089%)" offset="0.0976563"/><stop stop-opacity="1" stop-color="rgb(90.319824%, 81.55365%, 31.355286%)" offset="0.101562"/><stop stop-opacity="1" stop-color="rgb(89.94751%, 81.340027%, 31.217957%)" offset="0.105469"/><stop stop-opacity="1" stop-color="rgb(89.575195%, 81.12793%, 31.082153%)" offset="0.109375"/><stop stop-opacity="1" stop-color="rgb(89.202881%, 80.914307%, 30.944824%)" offset="0.113281"/><stop stop-opacity="1" stop-color="rgb(88.830566%, 80.700684%, 30.809021%)" offset="0.117188"/><stop stop-opacity="1" stop-color="rgb(88.458252%, 80.487061%, 30.673218%)" offset="0.121094"/><stop stop-opacity="1" stop-color="rgb(88.087463%, 80.274963%, 30.537415%)" offset="0.125"/><stop stop-opacity="1" stop-color="rgb(87.715149%, 80.06134%, 30.400085%)" offset="0.128906"/><stop stop-opacity="1" stop-color="rgb(87.342834%, 79.847717%, 30.264282%)" offset="0.132812"/><stop stop-opacity="1" stop-color="rgb(86.97052%, 79.634094%, 30.126953%)" offset="0.136719"/><stop stop-opacity="1" stop-color="rgb(86.598206%, 79.420471%, 29.99115%)" offset="0.140625"/><stop stop-opacity="1" stop-color="rgb(86.225891%, 79.206848%, 29.853821%)" offset="0.144531"/><stop stop-opacity="1" stop-color="rgb(85.853577%, 78.994751%, 29.718018%)" offset="0.148438"/><stop stop-opacity="1" stop-color="rgb(85.481262%, 78.781128%, 29.582214%)" offset="0.152344"/><stop stop-opacity="1" stop-color="rgb(85.108948%, 78.567505%, 29.446411%)" offset="0.15625"/><stop stop-opacity="1" stop-color="rgb(84.736633%, 78.353882%, 29.309082%)" offset="0.160156"/><stop stop-opacity="1" stop-color="rgb(84.364319%, 78.141785%, 29.173279%)" offset="0.164062"/><stop stop-opacity="1" stop-color="rgb(83.992004%, 77.928162%, 29.03595%)" offset="0.167969"/><stop stop-opacity="1" stop-color="rgb(83.61969%, 77.714539%, 28.900146%)" offset="0.171875"/><stop stop-opacity="1" stop-color="rgb(83.247375%, 77.500916%, 28.764343%)" offset="0.175781"/><stop stop-opacity="1" stop-color="rgb(82.875061%, 77.288818%, 28.62854%)" offset="0.179687"/><stop stop-opacity="1" stop-color="rgb(82.502747%, 77.075195%, 28.491211%)" offset="0.183594"/><stop stop-opacity="1" stop-color="rgb(82.130432%, 76.861572%, 28.355408%)" offset="0.1875"/><stop stop-opacity="1" stop-color="rgb(81.758118%, 76.647949%, 28.218079%)" offset="0.191406"/><stop stop-opacity="1" stop-color="rgb(81.385803%, 76.435852%, 28.082275%)" offset="0.195313"/><stop stop-opacity="1" stop-color="rgb(81.013489%, 76.222229%, 27.946472%)" offset="0.199219"/><stop stop-opacity="1" stop-color="rgb(80.641174%, 76.008606%, 27.810669%)" offset="0.203125"/><stop stop-opacity="1" stop-color="rgb(80.26886%, 75.794983%, 27.67334%)" offset="0.207031"/><stop stop-opacity="1" stop-color="rgb(79.896545%, 75.58136%, 27.537537%)" offset="0.210938"/><stop stop-opacity="1" stop-color="rgb(79.524231%, 75.367737%, 27.400208%)" offset="0.214844"/><stop stop-opacity="1" stop-color="rgb(79.151917%, 75.15564%, 27.264404%)" offset="0.21875"/><stop stop-opacity="1" stop-color="rgb(78.779602%, 74.942017%, 27.128601%)" offset="0.222656"/><stop stop-opacity="1" stop-color="rgb(78.407288%, 74.728394%, 26.992798%)" offset="0.226562"/><stop stop-opacity="1" stop-color="rgb(78.034973%, 74.514771%, 26.855469%)" offset="0.230469"/><stop stop-opacity="1" stop-color="rgb(77.662659%, 74.302673%, 26.719666%)" offset="0.234375"/><stop stop-opacity="1" stop-color="rgb(77.290344%, 74.08905%, 26.582336%)" offset="0.238281"/><stop stop-opacity="1" stop-color="rgb(76.91803%, 73.875427%, 26.446533%)" offset="0.242188"/><stop stop-opacity="1" stop-color="rgb(76.545715%, 73.661804%, 26.31073%)" offset="0.246094"/><stop stop-opacity="1" stop-color="rgb(76.174927%, 73.449707%, 26.174927%)" offset="0.25"/><stop stop-opacity="1" stop-color="rgb(75.802612%, 73.236084%, 26.037598%)" offset="0.253906"/><stop stop-opacity="1" stop-color="rgb(75.430298%, 73.022461%, 25.901794%)" offset="0.257812"/><stop stop-opacity="1" stop-color="rgb(75.057983%, 72.808838%, 25.764465%)" offset="0.261719"/><stop stop-opacity="1" stop-color="rgb(74.685669%, 72.596741%, 25.628662%)" offset="0.265625"/><stop stop-opacity="1" stop-color="rgb(74.313354%, 72.383118%, 25.491333%)" offset="0.269531"/><stop stop-opacity="1" stop-color="rgb(73.94104%, 72.169495%, 25.35553%)" offset="0.273438"/><stop stop-opacity="1" stop-color="rgb(73.568726%, 71.955872%, 25.219727%)" offset="0.277344"/><stop stop-opacity="1" stop-color="rgb(73.196411%, 71.742249%, 25.083923%)" offset="0.28125"/><stop stop-opacity="1" stop-color="rgb(72.824097%, 71.528625%, 24.946594%)" offset="0.285156"/><stop stop-opacity="1" stop-color="rgb(72.451782%, 71.316528%, 24.810791%)" offset="0.289062"/><stop stop-opacity="1" stop-color="rgb(72.079468%, 71.102905%, 24.673462%)" offset="0.292969"/><stop stop-opacity="1" stop-color="rgb(71.707153%, 70.889282%, 24.537659%)" offset="0.296875"/><stop stop-opacity="1" stop-color="rgb(71.334839%, 70.675659%, 24.401855%)" offset="0.300781"/><stop stop-opacity="1" stop-color="rgb(70.962524%, 70.463562%, 24.266052%)" offset="0.304688"/><stop stop-opacity="1" stop-color="rgb(70.59021%, 70.249939%, 24.128723%)" offset="0.308594"/><stop stop-opacity="1" stop-color="rgb(70.217896%, 70.036316%, 23.99292%)" offset="0.3125"/><stop stop-opacity="1" stop-color="rgb(69.845581%, 69.822693%, 23.855591%)" offset="0.316406"/><stop stop-opacity="1" stop-color="rgb(69.473267%, 69.610596%, 23.719788%)" offset="0.320312"/><stop stop-opacity="1" stop-color="rgb(69.100952%, 69.396973%, 23.583984%)" offset="0.324219"/><stop stop-opacity="1" stop-color="rgb(68.728638%, 69.18335%, 23.448181%)" offset="0.328125"/><stop stop-opacity="1" stop-color="rgb(68.356323%, 68.969727%, 23.310852%)" offset="0.332031"/><stop stop-opacity="1" stop-color="rgb(67.984009%, 68.757629%, 23.175049%)" offset="0.335938"/><stop stop-opacity="1" stop-color="rgb(67.611694%, 68.544006%, 23.03772%)" offset="0.339844"/><stop stop-opacity="1" stop-color="rgb(67.23938%, 68.330383%, 22.901917%)" offset="0.34375"/><stop stop-opacity="1" stop-color="rgb(66.867065%, 68.11676%, 22.766113%)" offset="0.347656"/><stop stop-opacity="1" stop-color="rgb(66.494751%, 67.904663%, 22.63031%)" offset="0.351562"/><stop stop-opacity="1" stop-color="rgb(66.122437%, 67.69104%, 22.492981%)" offset="0.355469"/><stop stop-opacity="1" stop-color="rgb(65.750122%, 67.477417%, 22.357178%)" offset="0.359375"/><stop stop-opacity="1" stop-color="rgb(65.377808%, 67.263794%, 22.219849%)" offset="0.363281"/><stop stop-opacity="1" stop-color="rgb(65.007019%, 67.050171%, 22.084045%)" offset="0.367188"/><stop stop-opacity="1" stop-color="rgb(64.634705%, 66.836548%, 21.948242%)" offset="0.371094"/><stop stop-opacity="1" stop-color="rgb(64.26239%, 66.624451%, 21.812439%)" offset="0.375"/><stop stop-opacity="1" stop-color="rgb(63.890076%, 66.410828%, 21.67511%)" offset="0.378906"/><stop stop-opacity="1" stop-color="rgb(63.517761%, 66.197205%, 21.539307%)" offset="0.382812"/><stop stop-opacity="1" stop-color="rgb(63.145447%, 65.983582%, 21.401978%)" offset="0.386719"/><stop stop-opacity="1" stop-color="rgb(62.773132%, 65.771484%, 21.266174%)" offset="0.390625"/><stop stop-opacity="1" stop-color="rgb(62.400818%, 65.557861%, 21.128845%)" offset="0.394531"/><stop stop-opacity="1" stop-color="rgb(62.028503%, 65.344238%, 20.993042%)" offset="0.398438"/><stop stop-opacity="1" stop-color="rgb(61.656189%, 65.130615%, 20.857239%)" offset="0.402344"/><stop stop-opacity="1" stop-color="rgb(61.283875%, 64.918518%, 20.721436%)" offset="0.40625"/><stop stop-opacity="1" stop-color="rgb(60.91156%, 64.704895%, 20.584106%)" offset="0.410156"/><stop stop-opacity="1" stop-color="rgb(60.539246%, 64.491272%, 20.448303%)" offset="0.414062"/><stop stop-opacity="1" stop-color="rgb(60.166931%, 64.277649%, 20.310974%)" offset="0.417969"/><stop stop-opacity="1" stop-color="rgb(59.794617%, 64.065552%, 20.175171%)" offset="0.421875"/><stop stop-opacity="1" stop-color="rgb(59.422302%, 63.851929%, 20.039368%)" offset="0.425781"/><stop stop-opacity="1" stop-color="rgb(59.049988%, 63.638306%, 19.903564%)" offset="0.429688"/><stop stop-opacity="1" stop-color="rgb(58.677673%, 63.424683%, 19.766235%)" offset="0.433594"/><stop stop-opacity="1" stop-color="rgb(58.305359%, 63.21106%, 19.630432%)" offset="0.4375"/><stop stop-opacity="1" stop-color="rgb(57.933044%, 62.997437%, 19.493103%)" offset="0.441406"/><stop stop-opacity="1" stop-color="rgb(57.56073%, 62.785339%, 19.3573%)" offset="0.445312"/><stop stop-opacity="1" stop-color="rgb(57.188416%, 62.571716%, 19.221497%)" offset="0.449219"/><stop stop-opacity="1" stop-color="rgb(56.816101%, 62.358093%, 19.085693%)" offset="0.453125"/><stop stop-opacity="1" stop-color="rgb(56.443787%, 62.14447%, 18.948364%)" offset="0.457031"/><stop stop-opacity="1" stop-color="rgb(56.071472%, 61.932373%, 18.812561%)" offset="0.460938"/><stop stop-opacity="1" stop-color="rgb(55.699158%, 61.71875%, 18.675232%)" offset="0.464844"/><stop stop-opacity="1" stop-color="rgb(55.326843%, 61.505127%, 18.539429%)" offset="0.46875"/><stop stop-opacity="1" stop-color="rgb(54.954529%, 61.291504%, 18.403625%)" offset="0.472656"/><stop stop-opacity="1" stop-color="rgb(54.582214%, 61.079407%, 18.267822%)" offset="0.476562"/><stop stop-opacity="1" stop-color="rgb(54.2099%, 60.865784%, 18.130493%)" offset="0.480469"/><stop stop-opacity="1" stop-color="rgb(53.837585%, 60.652161%, 17.99469%)" offset="0.484375"/><stop stop-opacity="1" stop-color="rgb(53.465271%, 60.438538%, 17.857361%)" offset="0.488281"/><stop stop-opacity="1" stop-color="rgb(53.094482%, 60.22644%, 17.721558%)" offset="0.492188"/><stop stop-opacity="1" stop-color="rgb(52.722168%, 60.012817%, 17.585754%)" offset="0.496094"/><stop stop-opacity="1" stop-color="rgb(52.349854%, 59.799194%, 17.449951%)" offset="0.5"/><stop stop-opacity="1" stop-color="rgb(51.977539%, 59.585571%, 17.312622%)" offset="0.503906"/><stop stop-opacity="1" stop-color="rgb(51.605225%, 59.371948%, 17.176819%)" offset="0.507812"/><stop stop-opacity="1" stop-color="rgb(51.23291%, 59.158325%, 17.03949%)" offset="0.511719"/><stop stop-opacity="1" stop-color="rgb(50.860596%, 58.946228%, 16.903687%)" offset="0.515625"/><stop stop-opacity="1" stop-color="rgb(50.488281%, 58.732605%, 16.766357%)" offset="0.519531"/><stop stop-opacity="1" stop-color="rgb(50.115967%, 58.518982%, 16.630554%)" offset="0.523438"/><stop stop-opacity="1" stop-color="rgb(49.743652%, 58.305359%, 16.494751%)" offset="0.527344"/><stop stop-opacity="1" stop-color="rgb(49.371338%, 58.093262%, 16.358948%)" offset="0.53125"/><stop stop-opacity="1" stop-color="rgb(48.999023%, 57.879639%, 16.221619%)" offset="0.535156"/><stop stop-opacity="1" stop-color="rgb(48.626709%, 57.666016%, 16.085815%)" offset="0.539062"/><stop stop-opacity="1" stop-color="rgb(48.254395%, 57.452393%, 15.948486%)" offset="0.542969"/><stop stop-opacity="1" stop-color="rgb(47.88208%, 57.240295%, 15.812683%)" offset="0.546875"/><stop stop-opacity="1" stop-color="rgb(47.509766%, 57.026672%, 15.67688%)" offset="0.550781"/><stop stop-opacity="1" stop-color="rgb(47.137451%, 56.813049%, 15.541077%)" offset="0.554688"/><stop stop-opacity="1" stop-color="rgb(46.765137%, 56.599426%, 15.403748%)" offset="0.558594"/><stop stop-opacity="1" stop-color="rgb(46.392822%, 56.387329%, 15.267944%)" offset="0.5625"/><stop stop-opacity="1" stop-color="rgb(46.020508%, 56.173706%, 15.130615%)" offset="0.566406"/><stop stop-opacity="1" stop-color="rgb(45.648193%, 55.960083%, 14.994812%)" offset="0.570312"/><stop stop-opacity="1" stop-color="rgb(45.275879%, 55.74646%, 14.859009%)" offset="0.574219"/><stop stop-opacity="1" stop-color="rgb(44.903564%, 55.534363%, 14.723206%)" offset="0.578125"/><stop stop-opacity="1" stop-color="rgb(44.53125%, 55.32074%, 14.585876%)" offset="0.582031"/><stop stop-opacity="1" stop-color="rgb(44.158936%, 55.107117%, 14.450073%)" offset="0.585937"/><stop stop-opacity="1" stop-color="rgb(43.786621%, 54.893494%, 14.312744%)" offset="0.589844"/><stop stop-opacity="1" stop-color="rgb(43.414307%, 54.679871%, 14.176941%)" offset="0.59375"/><stop stop-opacity="1" stop-color="rgb(43.041992%, 54.466248%, 14.041138%)" offset="0.597656"/><stop stop-opacity="1" stop-color="rgb(42.669678%, 54.25415%, 13.905334%)" offset="0.601562"/><stop stop-opacity="1" stop-color="rgb(42.297363%, 54.040527%, 13.768005%)" offset="0.605469"/><stop stop-opacity="1" stop-color="rgb(41.925049%, 53.826904%, 13.632202%)" offset="0.609375"/><stop stop-opacity="1" stop-color="rgb(41.552734%, 53.613281%, 13.494873%)" offset="0.613281"/><stop stop-opacity="1" stop-color="rgb(41.181946%, 53.401184%, 13.35907%)" offset="0.617187"/><stop stop-opacity="1" stop-color="rgb(40.809631%, 53.187561%, 13.223267%)" offset="0.621094"/><stop stop-opacity="1" stop-color="rgb(40.437317%, 52.973938%, 13.087463%)" offset="0.625"/><stop stop-opacity="1" stop-color="rgb(40.065002%, 52.760315%, 12.950134%)" offset="0.628906"/><stop stop-opacity="1" stop-color="rgb(39.692688%, 52.548218%, 12.814331%)" offset="0.632812"/><stop stop-opacity="1" stop-color="rgb(39.320374%, 52.334595%, 12.677002%)" offset="0.636719"/><stop stop-opacity="1" stop-color="rgb(38.948059%, 52.120972%, 12.541199%)" offset="0.640625"/><stop stop-opacity="1" stop-color="rgb(38.575745%, 51.907349%, 12.40387%)" offset="0.644531"/><stop stop-opacity="1" stop-color="rgb(38.20343%, 51.695251%, 12.268066%)" offset="0.648438"/><stop stop-opacity="1" stop-color="rgb(37.831116%, 51.481628%, 12.132263%)" offset="0.652344"/><stop stop-opacity="1" stop-color="rgb(37.458801%, 51.268005%, 11.99646%)" offset="0.65625"/><stop stop-opacity="1" stop-color="rgb(37.086487%, 51.054382%, 11.859131%)" offset="0.660156"/><stop stop-opacity="1" stop-color="rgb(36.714172%, 50.840759%, 11.723328%)" offset="0.664062"/><stop stop-opacity="1" stop-color="rgb(36.341858%, 50.627136%, 11.585999%)" offset="0.667969"/><stop stop-opacity="1" stop-color="rgb(35.969543%, 50.415039%, 11.450195%)" offset="0.671875"/><stop stop-opacity="1" stop-color="rgb(35.597229%, 50.201416%, 11.314392%)" offset="0.675781"/><stop stop-opacity="1" stop-color="rgb(35.224915%, 49.987793%, 11.178589%)" offset="0.679688"/><stop stop-opacity="1" stop-color="rgb(34.8526%, 49.77417%, 11.04126%)" offset="0.683594"/><stop stop-opacity="1" stop-color="rgb(34.480286%, 49.562073%, 10.905457%)" offset="0.6875"/><stop stop-opacity="1" stop-color="rgb(34.107971%, 49.34845%, 10.768127%)" offset="0.691406"/><stop stop-opacity="1" stop-color="rgb(33.735657%, 49.134827%, 10.632324%)" offset="0.695312"/><stop stop-opacity="1" stop-color="rgb(33.363342%, 48.921204%, 10.496521%)" offset="0.699219"/><stop stop-opacity="1" stop-color="rgb(32.991028%, 48.709106%, 10.360718%)" offset="0.703125"/><stop stop-opacity="1" stop-color="rgb(32.618713%, 48.495483%, 10.223389%)" offset="0.707031"/><stop stop-opacity="1" stop-color="rgb(32.246399%, 48.28186%, 10.087585%)" offset="0.710938"/><stop stop-opacity="1" stop-color="rgb(31.874084%, 48.068237%, 9.950256%)" offset="0.714844"/><stop stop-opacity="1" stop-color="rgb(31.50177%, 47.85614%, 9.814453%)" offset="0.71875"/><stop stop-opacity="1" stop-color="rgb(31.129456%, 47.642517%, 9.67865%)" offset="0.722656"/><stop stop-opacity="1" stop-color="rgb(30.757141%, 47.428894%, 9.542847%)" offset="0.726562"/><stop stop-opacity="1" stop-color="rgb(30.384827%, 47.215271%, 9.405518%)" offset="0.730469"/><stop stop-opacity="1" stop-color="rgb(30.014038%, 47.001648%, 9.269714%)" offset="0.734375"/><stop stop-opacity="1" stop-color="rgb(29.641724%, 46.788025%, 9.132385%)" offset="0.738281"/><stop stop-opacity="1" stop-color="rgb(29.269409%, 46.575928%, 8.996582%)" offset="0.742188"/><stop stop-opacity="1" stop-color="rgb(28.897095%, 46.362305%, 8.860779%)" offset="0.746094"/><stop stop-opacity="1" stop-color="rgb(28.52478%, 46.148682%, 8.724976%)" offset="0.75"/><stop stop-opacity="1" stop-color="rgb(28.152466%, 45.935059%, 8.587646%)" offset="0.753906"/><stop stop-opacity="1" stop-color="rgb(27.780151%, 45.722961%, 8.451843%)" offset="0.757812"/><stop stop-opacity="1" stop-color="rgb(27.407837%, 45.509338%, 8.314514%)" offset="0.761719"/><stop stop-opacity="1" stop-color="rgb(27.035522%, 45.295715%, 8.178711%)" offset="0.765625"/><stop stop-opacity="1" stop-color="rgb(26.663208%, 45.082092%, 8.041382%)" offset="0.769531"/><stop stop-opacity="1" stop-color="rgb(26.290894%, 44.869995%, 7.905579%)" offset="0.773437"/><stop stop-opacity="1" stop-color="rgb(25.918579%, 44.656372%, 7.769775%)" offset="0.777344"/><stop stop-opacity="1" stop-color="rgb(25.546265%, 44.442749%, 7.633972%)" offset="0.78125"/><stop stop-opacity="1" stop-color="rgb(25.17395%, 44.229126%, 7.496643%)" offset="0.785156"/><stop stop-opacity="1" stop-color="rgb(24.801636%, 44.017029%, 7.36084%)" offset="0.789062"/><stop stop-opacity="1" stop-color="rgb(24.429321%, 43.803406%, 7.223511%)" offset="0.792969"/><stop stop-opacity="1" stop-color="rgb(24.057007%, 43.589783%, 7.087708%)" offset="0.796875"/><stop stop-opacity="1" stop-color="rgb(23.684692%, 43.37616%, 6.951904%)" offset="0.800781"/><stop stop-opacity="1" stop-color="rgb(23.312378%, 43.164062%, 6.816101%)" offset="0.804687"/><stop stop-opacity="1" stop-color="rgb(22.940063%, 42.950439%, 6.678772%)" offset="0.808594"/><stop stop-opacity="1" stop-color="rgb(22.567749%, 42.736816%, 6.542969%)" offset="0.8125"/><stop stop-opacity="1" stop-color="rgb(22.195435%, 42.523193%, 6.40564%)" offset="0.816406"/><stop stop-opacity="1" stop-color="rgb(21.82312%, 42.30957%, 6.269836%)" offset="0.820312"/><stop stop-opacity="1" stop-color="rgb(21.450806%, 42.095947%, 6.134033%)" offset="0.824219"/><stop stop-opacity="1" stop-color="rgb(21.078491%, 41.88385%, 5.99823%)" offset="0.828125"/><stop stop-opacity="1" stop-color="rgb(20.706177%, 41.670227%, 5.860901%)" offset="0.832031"/><stop stop-opacity="1" stop-color="rgb(20.333862%, 41.456604%, 5.725098%)" offset="0.835937"/><stop stop-opacity="1" stop-color="rgb(19.961548%, 41.242981%, 5.587769%)" offset="0.839844"/><stop stop-opacity="1" stop-color="rgb(19.589233%, 41.030884%, 5.451965%)" offset="0.84375"/><stop stop-opacity="1" stop-color="rgb(19.216919%, 40.817261%, 5.316162%)" offset="0.847656"/><stop stop-opacity="1" stop-color="rgb(18.844604%, 40.603638%, 5.180359%)" offset="0.851562"/><stop stop-opacity="1" stop-color="rgb(18.47229%, 40.390015%, 5.04303%)" offset="0.855469"/><stop stop-opacity="1" stop-color="rgb(18.101501%, 40.177917%, 4.907227%)" offset="0.859375"/><stop stop-opacity="1" stop-color="rgb(17.729187%, 39.964294%, 4.769897%)" offset="0.863281"/><stop stop-opacity="1" stop-color="rgb(17.356873%, 39.750671%, 4.634094%)" offset="0.867188"/><stop stop-opacity="1" stop-color="rgb(16.984558%, 39.537048%, 4.498291%)" offset="0.871094"/><stop stop-opacity="1" stop-color="rgb(16.612244%, 39.324951%, 4.362488%)" offset="0.875"/><stop stop-opacity="1" stop-color="rgb(16.239929%, 39.111328%, 4.225159%)" offset="0.878906"/><stop stop-opacity="1" stop-color="rgb(15.867615%, 38.897705%, 4.089355%)" offset="0.882812"/><stop stop-opacity="1" stop-color="rgb(15.4953%, 38.684082%, 3.952026%)" offset="0.886719"/><stop stop-opacity="1" stop-color="rgb(15.122986%, 38.470459%, 3.816223%)" offset="0.890625"/><stop stop-opacity="1" stop-color="rgb(14.750671%, 38.256836%, 3.678894%)" offset="0.894531"/><stop stop-opacity="1" stop-color="rgb(14.378357%, 38.044739%, 3.543091%)" offset="0.898438"/><stop stop-opacity="1" stop-color="rgb(14.006042%, 37.831116%, 3.407288%)" offset="0.902344"/><stop stop-opacity="1" stop-color="rgb(13.633728%, 37.617493%, 3.271484%)" offset="0.90625"/><stop stop-opacity="1" stop-color="rgb(13.261414%, 37.40387%, 3.134155%)" offset="0.910156"/><stop stop-opacity="1" stop-color="rgb(12.889099%, 37.191772%, 2.998352%)" offset="0.914062"/><stop stop-opacity="1" stop-color="rgb(12.516785%, 36.978149%, 2.861023%)" offset="0.917969"/><stop stop-opacity="1" stop-color="rgb(12.14447%, 36.764526%, 2.72522%)" offset="0.921875"/><stop stop-opacity="1" stop-color="rgb(11.772156%, 36.550903%, 2.589417%)" offset="0.925781"/><stop stop-opacity="1" stop-color="rgb(11.399841%, 36.338806%, 2.453613%)" offset="0.929687"/><stop stop-opacity="1" stop-color="rgb(11.027527%, 36.125183%, 2.316284%)" offset="0.933594"/><stop stop-opacity="1" stop-color="rgb(10.655212%, 35.91156%, 2.180481%)" offset="0.9375"/><stop stop-opacity="1" stop-color="rgb(10.282898%, 35.697937%, 2.043152%)" offset="0.941406"/><stop stop-opacity="1" stop-color="rgb(9.910583%, 35.48584%, 1.907349%)" offset="0.945312"/><stop stop-opacity="1" stop-color="rgb(9.538269%, 35.272217%, 1.771545%)" offset="0.949219"/><stop stop-opacity="1" stop-color="rgb(9.165955%, 35.058594%, 1.635742%)" offset="0.953125"/><stop stop-opacity="1" stop-color="rgb(8.79364%, 34.844971%, 1.498413%)" offset="0.957031"/><stop stop-opacity="1" stop-color="rgb(8.421326%, 34.631348%, 1.36261%)" offset="0.960937"/><stop stop-opacity="1" stop-color="rgb(8.049011%, 34.417725%, 1.225281%)" offset="0.964844"/><stop stop-opacity="1" stop-color="rgb(7.676697%, 34.205627%, 1.089478%)" offset="0.96875"/><stop stop-opacity="1" stop-color="rgb(7.304382%, 33.992004%, 0.953674%)" offset="0.972656"/><stop stop-opacity="1" stop-color="rgb(6.933594%, 33.778381%, 0.817871%)" offset="0.976562"/><stop stop-opacity="1" stop-color="rgb(6.561279%, 33.564758%, 0.680542%)" offset="0.980469"/><stop stop-opacity="1" stop-color="rgb(6.188965%, 33.352661%, 0.544739%)" offset="0.984375"/><stop stop-opacity="1" stop-color="rgb(5.81665%, 33.139038%, 0.40741%)" offset="0.988281"/><stop stop-opacity="1" stop-color="rgb(5.444336%, 32.925415%, 0.271606%)" offset="0.992187"/><stop stop-opacity="1" stop-color="rgb(5.072021%, 32.711792%, 0.135803%)" offset="0.996094"/><stop stop-opacity="1" stop-color="rgb(4.699707%, 32.499695%, 0%)" offset="1"/></linearGradient></defs><g clip-path="url(#64ab3db18a)"><path fill="#ffffff" d="M 269.265625 187.515625 C 269.265625 188.855469 269.234375 190.191406 269.167969 191.527344 C 269.101562 192.863281 269.003906 194.199219 268.871094 195.53125 C 268.742188 196.859375 268.578125 198.1875 268.382812 199.511719 C 268.183594 200.835938 267.957031 202.152344 267.695312 203.464844 C 267.433594 204.777344 267.140625 206.082031 266.816406 207.378906 C 266.492188 208.679688 266.132812 209.96875 265.746094 211.246094 C 265.359375 212.527344 264.9375 213.796875 264.488281 215.058594 C 264.035156 216.316406 263.554688 217.566406 263.042969 218.800781 C 262.53125 220.035156 261.988281 221.257812 261.417969 222.46875 C 260.84375 223.679688 260.246094 224.875 259.613281 226.054688 C 258.984375 227.234375 258.324219 228.398438 257.636719 229.542969 C 256.949219 230.691406 256.230469 231.820312 255.488281 232.933594 C 254.746094 234.046875 253.976562 235.140625 253.179688 236.214844 C 252.382812 237.289062 251.558594 238.34375 250.710938 239.378906 C 249.859375 240.414062 248.988281 241.425781 248.089844 242.417969 C 247.191406 243.40625 246.269531 244.375 245.324219 245.324219 C 244.375 246.269531 243.40625 247.191406 242.417969 248.089844 C 241.425781 248.988281 240.414062 249.859375 239.378906 250.710938 C 238.34375 251.558594 237.289062 252.382812 236.214844 253.179688 C 235.140625 253.976562 234.046875 254.746094 232.933594 255.488281 C 231.820312 256.230469 230.691406 256.949219 229.542969 257.636719 C 228.398438 258.324219 227.234375 258.984375 226.054688 259.613281 C 224.875 260.246094 223.679688 260.84375 222.46875 261.417969 C 221.257812 261.988281 220.035156 262.53125 218.800781 263.042969 C 217.566406 263.554688 216.316406 264.035156 215.058594 264.488281 C 213.796875 264.9375 212.527344 265.359375 211.246094 265.746094 C 209.96875 266.132812 208.679688 266.492188 207.378906 266.816406 C 206.082031 267.140625 204.777344 267.433594 203.464844 267.695312 C 202.152344 267.957031 200.835938 268.183594 199.511719 268.382812 C 198.1875 268.578125 196.859375 268.742188 195.53125 268.871094 C 194.199219 269.003906 192.863281 269.101562 191.527344 269.167969 C 190.191406 269.234375 188.855469 269.265625 187.515625 269.265625 C 186.179688 269.265625 184.839844 269.234375 183.503906 269.167969 C 182.167969 269.101562 180.835938 269.003906 179.503906 268.871094 C 178.171875 268.742188 176.84375 268.578125 175.519531 268.382812 C 174.199219 268.183594 172.878906 267.957031 171.566406 267.695312 C 170.253906 267.433594 168.949219 267.140625 167.652344 266.816406 C 166.355469 266.492188 165.066406 266.132812 163.785156 265.746094 C 162.503906 265.359375 161.234375 264.9375 159.976562 264.488281 C 158.714844 264.035156 157.46875 263.554688 156.230469 263.042969 C 154.996094 262.53125 153.773438 261.988281 152.5625 261.417969 C 151.355469 260.84375 150.160156 260.246094 148.980469 259.613281 C 147.800781 258.984375 146.636719 258.324219 145.488281 257.636719 C 144.339844 256.949219 143.210938 256.230469 142.097656 255.488281 C 140.984375 254.746094 139.894531 253.976562 138.816406 253.179688 C 137.742188 252.382812 136.6875 251.558594 135.65625 250.710938 C 134.621094 249.859375 133.609375 248.988281 132.617188 248.089844 C 131.625 247.191406 130.65625 246.269531 129.710938 245.324219 C 128.765625 244.375 127.84375 243.40625 126.945312 242.417969 C 126.046875 241.425781 125.171875 240.414062 124.324219 239.378906 C 123.472656 238.34375 122.652344 237.289062 121.855469 236.214844 C 121.058594 235.140625 120.289062 234.046875 119.542969 232.933594 C 118.800781 231.820312 118.085938 230.691406 117.398438 229.542969 C 116.710938 228.398438 116.050781 227.234375 115.417969 226.054688 C 114.789062 224.875 114.1875 223.679688 113.617188 222.46875 C 113.042969 221.257812 112.5 220.035156 111.988281 218.800781 C 111.476562 217.566406 110.996094 216.316406 110.546875 215.058594 C 110.09375 213.796875 109.675781 212.527344 109.285156 211.246094 C 108.898438 209.96875 108.542969 208.679688 108.214844 207.378906 C 107.890625 206.082031 107.597656 204.777344 107.335938 203.464844 C 107.078125 202.152344 106.847656 200.835938 106.652344 199.511719 C 106.453125 198.1875 106.292969 196.859375 106.160156 195.53125 C 106.027344 194.199219 105.929688 192.863281 105.863281 191.527344 C 105.800781 190.191406 105.765625 188.855469 105.765625 187.515625 C 105.765625 186.179688 105.800781 184.839844 105.863281 183.503906 C 105.929688 182.167969 106.027344 180.835938 106.160156 179.503906 C 106.292969 178.171875 106.453125 176.84375 106.652344 175.519531 C 106.847656 174.199219 107.078125 172.878906 107.335938 171.566406 C 107.597656 170.253906 107.890625 168.949219 108.214844 167.652344 C 108.542969 166.355469 108.898438 165.066406 109.285156 163.785156 C 109.675781 162.503906 110.09375 161.234375 110.546875 159.976562 C 110.996094 158.714844 111.476562 157.46875 111.988281 156.230469 C 112.5 154.996094 113.042969 153.773438 113.617188 152.5625 C 114.1875 151.355469 114.789062 150.160156 115.417969 148.980469 C 116.050781 147.800781 116.710938 146.636719 117.398438 145.488281 C 118.085938 144.339844 118.800781 143.210938 119.542969 142.097656 C 120.289062 140.984375 121.058594 139.894531 121.855469 138.816406 C 122.652344 137.742188 123.472656 136.6875 124.324219 135.65625 C 125.171875 134.621094 126.046875 133.609375 126.945312 132.617188 C 127.84375 131.625 128.765625 130.65625 129.710938 129.710938 C 130.65625 128.765625 131.625 127.84375 132.617188 126.945312 C 133.609375 126.046875 134.621094 125.171875 135.65625 124.324219 C 136.6875 123.472656 137.742188 122.652344 138.816406 121.855469 C 139.894531 121.058594 140.984375 120.289062 142.097656 119.542969 C 143.210938 118.800781 144.339844 118.085938 145.488281 117.398438 C 146.636719 116.710938 147.800781 116.050781 148.980469 115.417969 C 150.160156 114.789062 151.355469 114.1875 152.5625 113.617188 C 153.773438 113.042969 154.996094 112.5 156.230469 111.988281 C 157.46875 111.476562 158.714844 110.996094 159.976562 110.546875 C 161.234375 110.09375 162.503906 109.675781 163.785156 109.285156 C 165.066406 108.898438 166.355469 108.542969 167.652344 108.214844 C 168.949219 107.890625 170.253906 107.597656 171.566406 107.335938 C 172.878906 107.078125 174.199219 106.847656 175.519531 106.652344 C 176.84375 106.453125 178.171875 106.292969 179.503906 106.160156 C 180.835938 106.027344 182.167969 105.929688 183.503906 105.863281 C 184.839844 105.800781 186.179688 105.765625 187.515625 105.765625 C 188.855469 105.765625 190.191406 105.800781 191.527344 105.863281 C 192.863281 105.929688 194.199219 106.027344 195.53125 106.160156 C 196.859375 106.292969 198.1875 106.453125 199.511719 106.652344 C 200.835938 106.847656 202.152344 107.078125 203.464844 107.335938 C 204.777344 107.597656 206.082031 107.890625 207.378906 108.214844 C 208.679688 108.542969 209.96875 108.898438 211.246094 109.285156 C 212.527344 109.675781 213.796875 110.09375 215.058594 110.546875 C 216.316406 110.996094 217.566406 111.476562 218.800781 111.988281 C 220.035156 112.5 221.257812 113.042969 222.46875 113.617188 C 223.679688 114.1875 224.875 114.789062 226.054688 115.417969 C 227.234375 116.050781 228.398438 116.710938 229.542969 117.398438 C 230.691406 118.085938 231.820312 118.800781 232.933594 119.542969 C 234.046875 120.289062 235.140625 121.058594 236.214844 121.855469 C 237.289062 122.652344 238.34375 123.472656 239.378906 124.324219 C 240.414062 125.171875 241.425781 126.046875 242.417969 126.945312 C 243.40625 127.84375 244.375 128.765625 245.324219 129.710938 C 246.269531 130.65625 247.191406 131.625 248.089844 132.617188 C 248.988281 133.609375 249.859375 134.621094 250.710938 135.65625 C 251.558594 136.6875 252.382812 137.742188 253.179688 138.816406 C 253.976562 139.894531 254.746094 140.984375 255.488281 142.097656 C 256.230469 143.210938 256.949219 144.339844 257.636719 145.488281 C 258.324219 146.636719 258.984375 147.800781 259.613281 148.980469 C 260.246094 150.160156 260.84375 151.355469 261.417969 152.5625 C 261.988281 153.773438 262.53125 154.996094 263.042969 156.230469 C 263.554688 157.46875 264.035156 158.714844 264.488281 159.976562 C 264.9375 161.234375 265.359375 162.503906 265.746094 163.785156 C 266.132812 165.066406 266.492188 166.355469 266.816406 167.652344 C 267.140625 168.949219 267.433594 170.253906 267.695312 171.566406 C 267.957031 172.878906 268.183594 174.199219 268.382812 175.519531 C 268.578125 176.84375 268.742188 178.171875 268.871094 179.503906 C 269.003906 180.835938 269.101562 182.167969 269.167969 183.503906 C 269.234375 184.839844 269.265625 186.179688 269.265625 187.515625 Z M 269.265625 187.515625 " fill-opacity="1" fill-rule="nonzero"/></g><g clip-path="url(#0ed6700998)"><path fill="#0c5300" d="M 187.4375 267.898438 C 165.953125 267.898438 145.726562 259.535156 130.546875 244.324219 C 115.335938 229.144531 106.972656 208.917969 106.972656 187.4375 C 106.972656 165.953125 115.335938 145.726562 130.546875 130.546875 C 145.726562 115.335938 165.953125 106.972656 187.4375 106.972656 C 208.917969 106.972656 229.144531 115.335938 244.324219 130.546875 C 259.535156 145.757812 267.898438 165.953125 267.898438 187.4375 C 267.898438 208.917969 259.535156 229.144531 244.324219 244.324219 C 229.144531 259.535156 208.917969 267.898438 187.4375 267.898438 Z M 187.4375 111.796875 C 167.238281 111.796875 148.234375 119.675781 133.953125 133.953125 C 119.675781 148.234375 111.796875 167.238281 111.796875 187.4375 C 111.796875 207.632812 119.675781 226.636719 133.953125 240.917969 C 148.234375 255.195312 167.238281 263.074219 187.4375 263.074219 C 207.632812 263.074219 226.636719 255.195312 240.917969 240.917969 C 255.195312 226.636719 263.074219 207.632812 263.074219 187.4375 C 263.074219 167.238281 255.195312 148.234375 240.917969 133.953125 C 226.636719 119.675781 207.632812 111.796875 187.4375 111.796875 Z M 187.4375 111.796875 " fill-opacity="1" fill-rule="nonzero"/></g><g clip-path="url(#47e7f0166d)"><g clip-path="url(#01896c3dc8)"><path fill="url(#b5030c6b7f)" d="M 114.433594 143.421875 L 114.433594 203.421875 L 260.277344 203.421875 L 260.277344 143.421875 Z M 114.433594 143.421875 " fill-rule="nonzero"/></g></g><g fill="#0c5300" fill-opacity="1"><g transform="translate(156.740194, 234.002344)"><g><path d="M 0.8125 -16.484375 C 0.8125 -18.242188 1.226562 -19.59375 2.0625 -20.53125 C 2.894531 -21.476562 4.148438 -21.953125 5.828125 -21.953125 C 7.503906 -21.953125 8.757812 -21.476562 9.59375 -20.53125 C 10.425781 -19.59375 10.84375 -18.242188 10.84375 -16.484375 L 10.84375 -15.65625 L 7.625 -15.65625 L 7.625 -16.703125 C 7.625 -17.492188 7.472656 -18.046875 7.171875 -18.359375 C 6.878906 -18.679688 6.460938 -18.84375 5.921875 -18.84375 C 5.378906 -18.84375 4.957031 -18.679688 4.65625 -18.359375 C 4.363281 -18.046875 4.21875 -17.492188 4.21875 -16.703125 C 4.21875 -15.960938 4.378906 -15.304688 4.703125 -14.734375 C 5.035156 -14.171875 5.453125 -13.632812 5.953125 -13.125 C 6.453125 -12.625 6.984375 -12.117188 7.546875 -11.609375 C 8.117188 -11.097656 8.648438 -10.539062 9.140625 -9.9375 C 9.640625 -9.34375 10.050781 -8.664062 10.375 -7.90625 C 10.707031 -7.144531 10.875 -6.242188 10.875 -5.203125 C 10.875 -3.453125 10.445312 -2.101562 9.59375 -1.15625 C 8.738281 -0.21875 7.472656 0.25 5.796875 0.25 C 4.117188 0.25 2.851562 -0.21875 2 -1.15625 C 1.144531 -2.101562 0.71875 -3.453125 0.71875 -5.203125 L 0.71875 -6.703125 L 3.9375 -6.703125 L 3.9375 -4.984375 C 3.9375 -4.203125 4.09375 -3.65625 4.40625 -3.34375 C 4.726562 -3.039062 5.160156 -2.890625 5.703125 -2.890625 C 6.242188 -2.890625 6.671875 -3.039062 6.984375 -3.34375 C 7.304688 -3.65625 7.46875 -4.203125 7.46875 -4.984375 C 7.46875 -5.734375 7.300781 -6.390625 6.96875 -6.953125 C 6.644531 -7.523438 6.234375 -8.0625 5.734375 -8.5625 C 5.234375 -9.070312 4.695312 -9.578125 4.125 -10.078125 C 3.5625 -10.585938 3.03125 -11.140625 2.53125 -11.734375 C 2.039062 -12.335938 1.628906 -13.019531 1.296875 -13.78125 C 0.972656 -14.550781 0.8125 -15.453125 0.8125 -16.484375 Z M 0.8125 -16.484375 "/></g></g></g><g fill="#0c5300" fill-opacity="1"><g transform="translate(172.579776, 234.002344)"><g><path d="M 12.28125 0 L 8.828125 0 L 8.25 -3.9375 L 4.0625 -3.9375 L 3.46875 0 L 0.34375 0 L 3.8125 -21.703125 L 8.796875 -21.703125 Z M 4.5 -6.875 L 7.78125 -6.875 L 6.140625 -17.859375 Z M 4.5 -6.875 "/></g></g></g><g fill="#0c5300" fill-opacity="1"><g transform="translate(189.44223, 234.002344)"><g><path d="M 11.125 -8.09375 L 11.125 -5.203125 C 11.125 -3.453125 10.695312 -2.101562 9.84375 -1.15625 C 8.988281 -0.21875 7.722656 0.25 6.046875 0.25 C 4.367188 0.25 3.101562 -0.21875 2.25 -1.15625 C 1.394531 -2.101562 0.96875 -3.453125 0.96875 -5.203125 L 0.96875 -16.484375 C 0.96875 -18.242188 1.394531 -19.59375 2.25 -20.53125 C 3.101562 -21.476562 4.367188 -21.953125 6.046875 -21.953125 C 7.722656 -21.953125 8.988281 -21.476562 9.84375 -20.53125 C 10.695312 -19.59375 11.125 -18.242188 11.125 -16.484375 L 11.125 -14.390625 L 7.90625 -14.390625 L 7.90625 -16.703125 C 7.90625 -17.492188 7.742188 -18.046875 7.421875 -18.359375 C 7.097656 -18.679688 6.671875 -18.84375 6.140625 -18.84375 C 5.597656 -18.84375 5.164062 -18.679688 4.84375 -18.359375 C 4.53125 -18.046875 4.375 -17.492188 4.375 -16.703125 L 4.375 -4.984375 C 4.375 -4.203125 4.53125 -3.65625 4.84375 -3.34375 C 5.164062 -3.039062 5.597656 -2.890625 6.140625 -2.890625 C 6.671875 -2.890625 7.097656 -3.039062 7.421875 -3.34375 C 7.742188 -3.65625 7.90625 -4.203125 7.90625 -4.984375 L 7.90625 -8.09375 Z M 11.125 -8.09375 "/></g></g></g><g fill="#0c5300" fill-opacity="1"><g transform="translate(205.653767, 234.002344)"><g><path d="M 12.28125 0 L 8.828125 0 L 8.25 -3.9375 L 4.0625 -3.9375 L 3.46875 0 L 0.34375 0 L 3.8125 -21.703125 L 8.796875 -21.703125 Z M 4.5 -6.875 L 7.78125 -6.875 L 6.140625 -17.859375 Z M 4.5 -6.875 "/></g></g></g></svg>